<?xml version="1.0" encoding="UTF-8"?><svg id="Layer_1" xmlns="http://www.w3.org/2000/svg" width="399.1" height="60.01" viewBox="0 0 399.1 60.01"><defs><style>.cls-1{fill:#fff;}.cls-1,.cls-2,.cls-3{stroke-width:0px;}.cls-2{fill:#f20000;}.cls-3{fill:#dc9d88;}</style></defs><path class="cls-2" d="M67.5,14.85h59.08l2.98-10.5C130.18,2.17,128.54,0,126.27,0h-54.55l-4.21,14.85h-.01Z"/><path class="cls-2" d="M15.18,40.89l1.86-6.56c.41-1.44,1.72-2.43,3.23-2.43h14.02l1.21-4.27h-16.56l1.21-4.25h23.43c2.22,0,3.83,2.12,3.23,4.25l-3.76,13.26h5.78l6.18-21.78h-5.78l1.21-4.25h5.78L60.41,0H18.49c-1.53,0-2.88,1.01-3.29,2.49L4.31,40.89h10.87,0Z"/><path class="cls-2" d="M26.49,40.89h5.25l1.34-4.75h-5.25l-1.34,4.75Z"/><path class="cls-2" d="M76.1,45.14l4.97-17.51h3.89l-4.97,17.51h11.3l4.97-17.51h3.89l-4.97,17.51h17.09l1.21-4.25h-5.78l3.76-13.26c.61-2.13-1-4.25-3.23-4.25h-34.73c-1.5,0-2.82.99-3.23,2.43l-4.27,15.08h-5.88l6.18-21.78h59.08l-10.89,38.41c-.41,1.47-1.76,2.49-3.29,2.49H3.42c-2.27,0-3.91-2.17-3.29-4.35l2.98-10.51h73-.01Z"/><path class="cls-3" d="M147.55,13.89c-.52-.15-1.07.17-1.21.69-1.83,6.7-3.68,13.21-5.32,18.95-1.3,4.54-2.46,8.62-3.37,11.99-.15.53.17,1.07.69,1.21.09.02.17.03.26.03.43,0,.83-.29.95-.73.91-3.36,2.08-7.43,3.37-11.97,1.64-5.75,3.5-12.26,5.32-18.97.14-.52-.17-1.06-.7-1.21h.01Z"/><path class="cls-1" d="M166.24,33.11l1.51-4.82h5.92l.47.7-1.11,3.41-.91.7h-5.88,0ZM160.79,39.38l.21.29h2.95l.37-.29.96-3.17h8.08l2.72-2.07,2.1-6.89-1.44-2.07h-11.29l-.37.29-4.28,13.9h-.01Z"/><path class="cls-1" d="M183.54,39.67h11.68l.39-.29.35-2.53-.21-.29h-8.06l.82-2.57h6.34l.41-.29,1.08-2.53-.21-.29h-6.67l.83-2.61h8.08l.41-.29,1.12-2.53-.23-.29h-11.68l-.37.29-4.28,13.9.21.29v.03Z"/><path class="cls-1" d="M211.05,31.44l.98-3.15h5.94l.46.68-.57,1.67-.99.79h-5.83.01ZM205.28,39.67h2.94l.37-.29,1.49-4.84h5.86l.52.79-1.27,4.05.21.29h2.94l.37-.29,1.25-4.16-1.38-2.09.09-.13,2.67-2.11,1.1-3.64-1.44-2.07h-11.29l-.37.29-4.28,13.9.21.29h0,0Z"/><path class="cls-1" d="M227.6,39.38l.21.29h2.94l.37-.29,1.67-5.4h6.34l.41-.29,1.08-2.51-.21-.29h-6.67l.83-2.61h8.1l.41-.29,1.1-2.53-.23-.29h-11.69l-.37.29-4.28,13.9v.02Z"/><path class="cls-1" d="M264.86,25.19h-9.24l-2.63,2.01-3.21,10.45,1.4,2.01h9.24l2.63-2.01,3.21-10.45-1.4-2.01h0ZM260.11,35.99l-.88.67h-5.1l-.45-.67,2.24-7.12.88-.67h5.1l.45.67-2.24,7.12h0Z"/><path class="cls-1" d="M277.45,31.44l.98-3.15h5.94l.46.68-.57,1.67-.99.79h-5.82ZM271.68,39.67h2.95l.37-.29,1.49-4.84h5.86l.52.79-1.27,4.05.21.29h2.94l.37-.29,1.25-4.16-1.38-2.09.09-.13,2.67-2.11,1.1-3.64-1.44-2.07h-11.29l-.37.29-4.28,13.9.21.29h.01,0Z"/><path class="cls-1" d="M302.64,31.23l-2.59-5.83-.25-.21h-2.91l-.37.29-4.28,13.9.21.29h2.94l.37-.29,2.63-8.48,2.74,5.46,6.02-5.46-2.62,8.48.21.29h2.94l.37-.29,4.28-13.9-.21-.29h-2.86l-.43.21-6.19,5.83Z"/><path class="cls-1" d="M321.72,31.44l.77-2.46.93-.68h5.22l.46.68-.77,2.46s-6.61,0-6.61,0ZM315.95,39.67h2.94l.37-.29,1.49-4.84h6.61l-1.49,4.84.21.29h2.94l.37-.29,3.73-12.12-1.44-2.07h-9.51l-2.71,2.07-3.73,12.12.21.29h.02,0Z"/><path class="cls-1" d="M337.18,39.38l.21.29h2.94l.37-.29,2.69-8.67,5.01,8.73.32.23h2.57l.37-.29,4.27-13.9-.21-.29h-2.94l-.37.29-2.69,8.67-5-8.73-.24-.23h-2.65l-.37.29-4.28,13.9h0Z"/><path class="cls-1" d="M375.67,25.19h-9.51l-2.71,2.07-3.17,10.34,1.44,2.07h9.51l2.71-2.07.79-2.67-.21-.29h-2.95l-.37.29-.29.93-.93.71h-5.22l-.46-.69,2.18-6.91.91-.68h5.22l.47.7-.29.93.21.29h2.94l.37-.29.79-2.67-1.44-2.07h.01Z"/><path class="cls-1" d="M382.74,39.67h11.68l.39-.29.35-2.53-.21-.29h-8.06l.82-2.57h6.34l.41-.29,1.08-2.53-.21-.29h-6.67l.83-2.61h8.08l.41-.29,1.12-2.53-.23-.29h-11.68l-.37.29-4.28,13.9.21.29v.03Z"/></svg>